# xmcd
#
# Track frame offsets: 
#        150
#        23602
#        67307
#        115089
#        149674
#
# Disc length: 2893 seconds
#
# Revision: 4
# Processed by: cddbd v1.5.2PL0 Copyright (c) Steve Scherf et al.
# Submitted via: ExactAudioCopy v0.99pb5
#
DISCID=470b4b05
DTITLE=François Corneloup - Pidgin
DYEAR=2003
DGENRE=Jazz
TTITLE0=Introduction - Bruges
TTITLE1=Pidgin
TTITLE2=La maison dort
TTITLE3=Tell
TTITLE4=Ophélie nage
EXTD=YEAR: 2003\n\nFrançois Corneloup bs.\nYves Robert tb.\nMarc Ducr
EXTD=et g.\nEric Echampard d.\n
EXTT0=
EXTT1=
EXTT2=
EXTT3=
EXTT4=
PLAYORDER=
